<?xml version="1.0" standalone="no"?><!-- Generator: Gravit.io --><svg xmlns="http://www.w3.org/2000/svg" xmlns:xlink="http://www.w3.org/1999/xlink" style="isolation:isolate" viewBox="0 0 24 24" width="24" height="24"><defs><clipPath id="_clipPath_tyJyrbJQ7wDA5jhxuppvXnCcrZvaAzxq"><rect width="24" height="24"/></clipPath></defs><g clip-path="url(#_clipPath_tyJyrbJQ7wDA5jhxuppvXnCcrZvaAzxq)"><path d=" M 0 0 L 24 0 L 24 24 L 0 24 L 0 0 L 0 0 Z " fill="none"/><path d=" M 12 2 C 6.48 2 2 6.48 2 12 C 2 17.52 6.48 22 12 22 C 17.52 22 22 17.52 22 12 C 22 6.48 17.52 2 12 2 Z  M 7.07 18.28 C 7.5 17.38 10.12 16.5 12 16.5 C 13.88 16.5 16.51 17.38 16.93 18.28 C 15.57 19.36 13.86 20 12 20 C 10.14 20 8.43 19.36 7.07 18.28 Z  M 18.36 16.83 C 16.93 15.09 13.46 14.5 12 14.5 C 10.54 14.5 7.07 15.09 5.64 16.83 C 4.62 15.49 4 13.82 4 12 C 4 7.59 7.59 4 12 4 C 16.41 4 20 7.59 20 12 C 20 13.82 19.38 15.49 18.36 16.83 Z  M 12 6 C 10.06 6 8.5 7.56 8.5 9.5 C 8.5 11.44 10.06 13 12 13 C 13.94 13 15.5 11.44 15.5 9.5 C 15.5 7.56 13.94 6 12 6 Z  M 12 11 C 11.17 11 10.5 10.33 10.5 9.5 C 10.5 8.67 11.17 8 12 8 C 12.83 8 13.5 8.67 13.5 9.5 C 13.5 10.33 12.83 11 12 11 Z " fill="rgb(255,255,255)"/></g></svg>