<?xml version="1.0" encoding="UTF-8" standalone="no"?><!-- Generator: Gravit.io --><svg xmlns="http://www.w3.org/2000/svg" xmlns:xlink="http://www.w3.org/1999/xlink" style="isolation:isolate" viewBox="485 218 279 382" width="279pt" height="382pt"><defs><clipPath id="_clipPath_EsgPnrW66AYnYkR0xDd61zmeMJE6J9ym"><rect x="485" y="218" width="279" height="382"/></clipPath></defs><g clip-path="url(#_clipPath_EsgPnrW66AYnYkR0xDd61zmeMJE6J9ym)"><g><g><g><path d=" M 618.105 421.173 C 657.019 421.173 688.568 382.855 688.568 335.587 C 688.568 288.318 678.21 250 618.105 250 C 558 250 547.64 288.318 547.64 335.587 C 547.64 382.855 579.189 421.173 618.105 421.173 Z " fill="rgb(0,0,0)"/><path d=" M 485.014 551.853 C 485.002 548.971 484.99 551.041 485.014 551.853 L 485.014 551.853 Z " fill="rgb(0,0,0)"/><path d=" M 751.19 554.104 C 751.228 553.315 751.203 548.63 751.19 554.104 L 751.19 554.104 Z " fill="rgb(0,0,0)"/><path d=" M 751.04 548.397 C 749.735 466.055 738.981 442.592 656.688 427.74 C 656.688 427.74 645.104 442.501 618.104 442.501 C 591.104 442.501 579.518 427.74 579.518 427.74 C 498.123 442.43 486.715 465.545 485.215 545.722 C 485.092 552.269 485.035 552.613 485.013 551.853 C 485.018 553.277 485.024 555.911 485.024 560.504 C 485.024 560.504 504.616 600 618.104 600 C 731.59 600 751.184 560.504 751.184 560.504 C 751.184 557.553 751.186 555.501 751.189 554.105 C 751.167 554.575 751.123 553.664 751.04 548.397 Z " fill="rgb(0,0,0)"/></g></g><circle vector-effect="non-scaling-stroke" cx="694.5000000000001" cy="287.5" r="69.5" fill="rgb(29,255,130)"/><circle vector-effect="non-scaling-stroke" cx="694.5" cy="287.5" r="49.5" fill="rgb(255,255,255)"/></g></g></svg>